<svg width="511.819" height="511.819" xmlns="http://www.w3.org/2000/svg" xml:space="preserve" version="1.1">

 <g>
  <title>Layer 1</title>
  <path id="svg_1" fill="#4c69e0" d="m511.819,272.06l0,26.48c0,0 -8.448,14.88 -14.032,17.2l-101.28,0l-7.44,-2.32l-3.264,7.44l-252.752,0l-0.672,-0.24l-11.408,-3.952l-85.952,11.152c0,0 -2.72,-0.128 -6.624,-0.64c-10.944,-1.424 -31.152,-5.856 -26.368,-18.88c0,0 -4.56,-24.688 0,-39.024c0,0 1.392,-19.984 18.576,-26.96c17.2,-6.96 67.84,-20.448 95.712,-24.608c0,0 24.624,-7.44 35.312,-17.2c0,0 24.112,-18.016 53.888,-31.072c16.048,-7.024 33.216,-11.168 50.656,-12.8c33.744,-3.168 107.088,-8.048 153.776,3.44c39.664,9.776 65.952,32.176 79.792,47.152c7.6,8.224 11.744,18.96 11.744,30.16l0,10.048l3.248,11.616c0.016,0 7.088,5.104 7.088,13.008z"/>
  <path id="svg_2" fill="#2E3235" d="m132.587,315.9c0,1.584 -0.064,3.168 -0.208,4.72l-11.408,-3.952l-85.952,11.152c0,0 -2.72,-0.128 -6.624,-0.64c-0.8,-3.632 -1.216,-7.408 -1.216,-11.28c0,-29.104 23.6,-52.704 52.704,-52.704s52.704,23.6 52.704,52.704z"/>
  <circle id="svg_3" fill="#3E4347" r="43.072" cy="315.9" cx="79.883"/>
  <path id="svg_4" fill="#2E3235" d="m388.059,315.708l1.008,-2.304l7.44,2.32l96.944,0c-0.096,-29.024 -23.648,-52.528 -52.688,-52.528c-29.056,0 -52.608,23.504 -52.704,52.512z"/>
  <g id="svg_5">
   <circle id="svg_6" fill="#3E4347" r="43.072" cy="315.9" cx="440.747"/>
   <path id="svg_7" fill="#3E4347" d="m287.499,166.652c-8.944,0.304 -14.608,0.608 -14.72,0.624l-0.32,0.016l-0.32,0c-0.896,-0.032 -1.792,-0.032 -2.688,-0.032c-39.056,0 -77.968,23.2 -97.696,37.024c-8.912,6.24 -15.92,15.024 -19.984,24.944l124.464,-9.936l11.264,-52.64z"/>
   <path id="svg_8" fill="#3E4347" d="m403.771,174.444c-12.368,-5.408 -41.824,-8.384 -83.072,-8.384c-4.832,0 -9.52,0.048 -13.936,0.112l-4.48,51.024l0,0l123.344,-9.84c0.4,-2.304 0.736,-4.496 0.976,-6.496l0.016,-0.16l0.032,-0.16c1.296,-7.552 -12.752,-19.92 -22.88,-26.096z"/>
  </g>
  <g id="svg_9">
   <path id="svg_10" fill="#FFD83B" d="m11.019,261.468c0,0 17.136,-19.952 36.336,-18.448c4.672,0.368 18.64,6.624 -3.2,18.448c-6.832,3.696 -20.272,5.872 -30.496,6.032c-8.288,0.112 -2.64,-6.032 -2.64,-6.032z"/>
   <path id="svg_11" fill="#FFD83B" d="m501.499,247.436l0,-10.048c0,-4.336 -0.8,-8.544 -2,-12.624c-6.912,-0.864 -15.568,-1.296 -18.384,1.52c-3.744,3.744 -3.744,17.44 0,21.184c3.136,3.136 13.6,2.256 20.72,1.216l-0.336,-1.248z"/>
  </g>
  <circle id="svg_12" fill="#CBD6E0" r="28.752" cy="315.9" cx="79.883"/>
  <circle id="svg_13" fill="#939799" r="23.456" cy="315.9" cx="79.883"/>
  <g id="svg_14">
   <circle id="svg_15" fill="#CBD6E0" r="16.88" cy="315.9" cx="79.883"/>
   <circle id="svg_16" fill="#CBD6E0" r="28.752" cy="315.9" cx="440.747"/>
  </g>
  <circle id="svg_17" fill="#939799" r="23.456" cy="315.9" cx="440.747"/>
  <circle id="svg_18" fill="#CBD6E0" r="16.88" cy="315.9" cx="440.747"/>
  <g id="svg_19">
   <path id="svg_20" fill="#5A5F63" d="m180.875,226.892l26.192,-2.096l32.944,-53.568c-11.456,2.944 -22.32,7.28 -32.32,12.064l-26.816,43.6z"/>
   <path id="svg_21" fill="#5A5F63" d="m216.299,224.06l13.664,-1.088l34.032,-55.344c-4.688,0.256 -9.344,0.768 -13.968,1.584l-33.728,54.848z"/>
   <path id="svg_22" fill="#5A5F63" d="m309.403,216.636l26.192,-2.096l28.912,-47.024c-7.296,-0.544 -15.392,-0.944 -24.192,-1.168l-30.912,50.288z"/>
   <path id="svg_23" fill="#5A5F63" d="m344.811,213.804l13.664,-1.088l26.416,-42.96c-3.68,-0.576 -7.632,-1.104 -12.048,-1.536l-28.032,45.584z"/>
  </g>
  <g id="svg_24"/>
  <g id="svg_25"/>
  <g id="svg_26"/>
  <g id="svg_27"/>
  <g id="svg_28"/>
  <g id="svg_29"/>
  <g id="svg_30"/>
  <g id="svg_31"/>
  <g id="svg_32"/>
  <g id="svg_33"/>
  <g id="svg_34"/>
  <g id="svg_35"/>
  <g id="svg_36"/>
  <g id="svg_37"/>
  <g id="svg_38"/>
 </g>
</svg>